<?xml version="1.0" standalone="no"?>
<!DOCTYPE svg PUBLIC "-//W3C//DTD SVG 20010904//EN"
 "http://www.w3.org/TR/2001/REC-SVG-20010904/DTD/svg10.dtd">
<svg version="1.0" xmlns="http://www.w3.org/2000/svg"
 width="300.000000pt" height="300.000000pt" viewBox="0 0 300.000000 300.000000"
 preserveAspectRatio="xMidYMid meet">
<metadata>
Created by potrace 1.11, written by Peter Selinger 2001-2013
</metadata>
<g transform="translate(0.000000,300.000000) scale(0.100000,-0.100000)"
fill="#000000" stroke="none">
<path d="M167 1733 c-3 -5 -4 -27 -3 -51 3 -57 -5 -66 -56 -67 l-43 0 0 -155
0 -155 634 -2 c398 -1 638 -6 644 -12 6 -6 -2 -12 -24 -16 -40 -6 -96 -13
-121 -14 -10 -1 -18 -6 -18 -12 0 -14 138 -6 168 10 12 6 22 18 22 26 0 8 5
15 10 15 6 0 10 -6 10 -14 0 -8 -4 -18 -10 -21 -12 -8 -13 -45 -1 -45 5 0 11
7 14 14 7 17 82 40 97 31 6 -3 10 -13 10 -21 0 -8 7 -14 15 -14 19 0 19 15 -1
46 l-17 25 84 -3 84 -3 3 -30 c5 -40 14 -48 43 -36 13 5 41 12 62 16 64 10 44
28 -25 21 -71 -6 -55 5 34 24 47 11 63 10 90 -1 18 -8 37 -13 41 -11 14 4 2
-21 -14 -30 -8 -4 -30 -14 -49 -21 -48 -18 -25 -27 30 -11 56 16 82 51 54 71
-15 11 -8 13 57 13 73 0 74 0 76 -27 0 -15 9 -32 18 -39 16 -12 26 -12 73 2
15 4 22 2 22 -7 0 -22 17 -42 28 -35 7 4 7 16 -1 36 -6 16 -8 32 -4 36 9 9 32
-12 32 -29 1 -15 81 -13 101 4 26 22 14 27 -31 14 -24 -8 -47 -10 -50 -5 -7
11 13 24 45 28 14 1 37 7 53 12 21 7 27 6 27 -6 0 -7 6 -13 13 -12 7 2 13 -9
15 -24 5 -40 22 -34 22 7 0 30 3 35 24 35 20 0 25 -6 28 -32 2 -17 9 -33 16
-36 10 -3 12 6 7 38 l-6 41 33 -3 c25 -2 34 -8 36 -25 2 -12 10 -27 19 -35 15
-12 16 -9 10 25 l-6 37 107 1 c59 1 124 0 144 -1 l36 -1 1 68 c0 37 0 73 1 78
1 6 1 26 0 45 -1 19 -3 55 -4 80 l-1 45 -450 1 c-503 2 -484 1 -469 12 16 11
54 78 54 95 0 12 -16 15 -89 15 -83 -1 -88 -2 -87 -21 1 -19 7 -21 59 -19 l59
1 -18 -27 c-38 -59 -33 -57 -139 -57 l-100 1 -3 62 c-3 57 -5 62 -26 62 -21 0
-23 -4 -22 -47 2 -79 -7 -86 -94 -74 -3 1 -5 18 -5 39 0 30 4 37 20 37 13 0
21 8 23 21 3 21 -1 22 -67 22 -62 0 -71 -2 -71 -18 0 -11 9 -20 22 -22 17 -2
21 -10 23 -40 1 -40 0 -40 -55 -41 -22 -1 -25 3 -26 37 -2 58 -29 79 -108 82
l-65 3 -3 -62 -3 -62 -50 2 c-95 4 -185 16 -186 24 -7 63 -6 64 56 69 92 8 81
28 -13 27 l-77 -2 1 -57 c0 -32 -2 -58 -5 -59 -33 -4 -92 -4 -98 0 -5 3 -9 25
-9 49 l-2 42 39 0 c26 0 39 4 39 14 0 10 -22 13 -94 14 -78 0 -94 -2 -89 -14
3 -8 19 -14 42 -14 l36 0 0 -45 c0 -33 -4 -45 -15 -46 -127 -8 -199 8 -214 47
-10 25 13 45 47 42 26 -3 36 -11 54 -46 1 -2 9 1 19 6 16 9 15 13 -15 42 -28
29 -37 32 -72 27 -61 -8 -91 -64 -54 -100 19 -20 6 -24 -65 -22 l-55 2 -3 46
c-3 47 -3 47 28 47 21 0 30 4 28 13 -7 19 -148 21 -148 1 0 -9 10 -14 29 -14
27 0 29 -2 29 -44 1 -27 -4 -46 -11 -48 -7 -2 -57 -3 -112 -3 l-100 0 0 63 c0
42 -3 62 -12 62 -6 0 -14 -3 -16 -7z m1179 -41 c35 -23 17 -72 -26 -72 -28 0
-30 2 -30 40 0 35 3 40 23 40 12 0 27 -4 33 -8z m824 -394 c0 -4 -7 -8 -15 -8
-10 0 -15 -7 -13 -17 2 -13 -5 -19 -24 -21 -24 -3 -28 0 -28 22 0 19 6 25 28
28 45 6 52 5 52 -4z m-700 -2 c0 -9 -40 -13 -46 -5 -3 5 6 9 20 9 14 0 26 -2
26 -4z"/>
<path d="M2754 1276 c-8 -22 -2 -27 16 -16 12 7 12 12 3 21 -10 10 -14 9 -19
-5z"/>
<path d="M1586 1268 c-10 -30 -14 -108 -6 -108 18 0 37 105 20 115 -5 3 -12 0
-14 -7z"/>
</g>
</svg>
